<?xml version="1.0" encoding="utf-8"?>
<!-- Generator: Adobe Illustrator 22.0.1, SVG Export Plug-In . SVG Version: 6.00 Build 0)  -->
<svg version="1.1" id="Layer_1" xmlns="http://www.w3.org/2000/svg" xmlns:xlink="http://www.w3.org/1999/xlink" x="0px" y="0px"
	 viewBox="0 0 34 32" style="enable-background:new 0 0 34 32;" xml:space="preserve">
<style type="text/css">
	.st0{fill:#FFFFFF;}
</style>
<path class="st0" d="M9.3,29.3l-4.2-1.5v-6.2L9.3,23V29.3z"/>
<path class="st0" d="M10.1,29.3l4.2-1.5v-6.2L10.1,23V29.3z"/>
<path class="st0" d="M5.6,21.1l4.2-1.2l3.9,1.3l-3.9,1.3L5.6,21.1z"/>
<path class="st0" d="M4.3,20.7l-4.2-1.5V13l4.2,1.4V20.7z"/>
<path class="st0" d="M5.1,20.7l4.2-1.5V13l-4.2,1.4L5.1,20.7z"/>
<path class="st0" d="M0.6,12.5l4.2-1.2l3.9,1.3L4.8,14L0.6,12.5z"/>
<path class="st0" d="M14.1,20.7l-4.2-1.5V13l4.2,1.4V20.7z"/>
<path class="st0" d="M14.9,20.7l4.2-1.5V13l-4.2,1.4L14.9,20.7z"/>
<path class="st0" d="M10.4,12.5l4.2-1.2l3.9,1.3L14.6,14L10.4,12.5z"/>
<path class="st0" d="M19.1,12.1l-4.2-1.5V4.4l4.2,1.4V12.1z"/>
<path class="st0" d="M19.9,12.1l4.2-1.5V4.4l-4.2,1.4V12.1z"/>
<path class="st0" d="M15.3,3.9l4.2-1.2L23.5,4l-3.9,1.3L15.3,3.9z"/>
<path class="st0" d="M28.9,12.1l-4.2-1.5V4.4l4.2,1.4V12.1z"/>
<path class="st0" d="M29.7,12.1l4.2-1.5V4.4l-4.2,1.4V12.1z"/>
<path class="st0" d="M25.1,3.9l4.2-1.2L33.3,4l-3.9,1.3L25.1,3.9z"/>
</svg>
