<?xml version="1.0" encoding="utf-8"?>
<!-- Generator: Adobe Illustrator 22.0.1, SVG Export Plug-In . SVG Version: 6.00 Build 0)  -->
<svg version="1.1" id="liquid-logo" xmlns="http://www.w3.org/2000/svg" xmlns:xlink="http://www.w3.org/1999/xlink" x="0px"
	 y="0px" viewBox="0 0 800 800" style="enable-background:new 0 0 800 800;" xml:space="preserve">
<style type="text/css">
	.st0{fill:#000099;}
</style>
<path class="st0" d="M429.9,389.3c3.1,0,6.3,0.2,9.4,0.5c-7.4-4.6-11.9-12.8-11.9-21.5V296c0-3,0-5.6-3.2-5.6h-19.7
	c-2.7,0.2-4.8,2.5-4.6,5.2c0,0.1,0,0.2,0,0.3v73.7c0.1,8,2.1,15.8,5.8,22.8C413.6,390.4,421.7,389.3,429.9,389.3L429.9,389.3z
	 M614.8,389.3v-76h16.8c20.7-0.1,37.6,16.5,37.8,37.2c0,0.6,0,1.3,0,1.9c0.9,20.3-14.9,37.5-35.2,38.4c-0.6,0-1.3,0-1.9,0
	c13,3.1,25.5,8.2,36.9,15.2c18.5-11.1,29.5-31.3,28.8-52.8c-0.2-34.9-28.7-63-63.6-62.8c-0.2,0-0.4,0-0.6,0h-37.4
	c-2.9,0-9.1,2.7-9.1,5.6v96c8.5-1.9,17.2-2.7,26-2.6C614.2,389.3,610.2,389.3,614.8,389.3L614.8,389.3z M505.1,369.7V296
	c0-2.9,0-5.6-2.9-5.6h-19.7c-2.8,0.2-4.8,2.7-4.6,5.4c0,0,0,0.1,0,0.1v72.6c0.5,12.2-8.4,22.8-20.6,24.4c12.3,3.8,22.3,10,33.2,14.6
	C501,398.5,505.1,384.8,505.1,369.7z M532.5,413.3c13.7-1.1,22.8-4.6,27.4-8.3V297.2c0-3-0.4-6.7-3.4-6.7h-21.2
	c-3,0-2.8,3.7-2.8,6.7V413.3z M194.4,407.6v-15.2c0.1-3.1-2.3-5.7-5.3-6h-44.9V296c0-3-2.3-5.4-5.3-5.6h-16.3
	c-3.1,0-5.6,2.5-5.8,5.6v103c13.6,9.1,29.4,14.2,45.7,14.8C173.4,414,184.3,411.9,194.4,407.6L194.4,407.6z M235.5,297.2
	c-0.6-3.5-3.5-6.3-7.1-6.7h-13.7c-3.5,0.5-6.2,3.2-6.6,6.7V399c8.6-4.4,17.9-7.3,27.4-8.5L235.5,297.2L235.5,297.2z M749.9,491.2
	c-26.7,15.5-59.7,15.5-86.4,0c-29.2-16.9-65.1-16.9-94.3,0c-26.7,15.5-59.7,15.5-86.4,0c-29.2-16.9-65.1-16.9-94.3,0
	c-13,8-28,12-43.2,11.7c-15.2,0.4-30.2-3.7-43.2-11.7c-14.2-8.6-30.5-13-47.1-12.7c-16.6-0.4-32.9,4-47.1,12.7
	c-13,8-28,12-43.2,11.7c-15.2,0.4-30.2-3.7-43.2-11.7c-14.2-8.6-30.5-13-47.1-12.7c-16.6-0.4-33,4-47.2,12.7
	C19,496.3,9.7,499.8,0,501.6v8.5c11.1-1.8,21.7-5.7,31.3-11.5c13-8,28-12,43.2-11.7c15.2-0.4,30.2,3.7,43.2,11.7
	c14.2,8.6,30.5,13,47.1,12.7c16.6,0.4,33-4,47.2-12.7c13-8,28-12,43.2-11.7c15.2-0.4,30.2,3.7,43.2,11.7c14.2,8.6,30.5,13,47.1,12.7
	c16.6,0.4,32.9-4,47.1-12.7c26.7-15.5,59.7-15.5,86.4,0c29.2,16.9,65.1,16.9,94.3,0c26.7-15.5,59.7-15.5,86.4,0
	c29.2,16.9,65.1,16.9,94.3,0c13-8,28-12,43.2-11.7h3v-8.2h-3C780.5,478.3,764.1,482.6,749.9,491.2L749.9,491.2z"/>
<path class="st0" d="M797,412.2c-16.6-0.3-33,4.1-47.1,12.8c-26.7,15.6-59.7,15.6-86.4,0c-29.2-16.9-65.1-16.9-94.3,0
	c-26.7,15.5-59.7,15.5-86.4,0c-29.2-16.9-65.1-16.9-94.3,0c-3.1,1.6-6.2,3.3-9.4,4.6L361,403.8c14.8-12.1,23.4-30.2,23.6-49.3
	c-0.2-36.3-29.8-65.5-66.1-65.3s-65.5,29.8-65.3,66.1c0.1,12.3,3.6,24.3,10.2,34.7c30.9,4.2,36.3,22.2,73.1,23.3l12.2,22.8h-3
	c-15.2,0.4-30.2-3.7-43.2-11.7c-14.2-8.6-30.5-13-47.1-12.7c-16.6-0.4-32.9,4-47.1,12.7c-13,8-28,12-43.2,11.7
	c-15.2,0.4-30.2-3.7-43.2-11.7c-14.2-8.6-30.5-13-47.1-12.7c-16.7-0.3-33.2,4.3-47.3,13.2C19,430.1,9.7,433.7,0,435.5v8.5
	c11.1-1.8,21.7-5.8,31.3-11.6c13-8,28-12,43.2-11.7c15.2-0.4,30.2,3.7,43.2,11.7c14.2,8.6,30.5,13,47.1,12.7
	c16.6,0.4,32.9-4,47.1-12.7c13-8,28-12,43.2-11.7c15.2-0.4,30.2,3.7,43.2,11.7c14.2,8.6,30.5,13,47.2,12.7
	c16.6,0.4,32.9-4,47.1-12.7c26.7-15.5,59.7-15.5,86.4,0c29.2,16.9,65.1,16.9,94.3,0c26.7-15.5,59.7-15.5,86.4,0
	c29.2,16.9,65.1,16.9,94.3,0c13-8,28-12,43.2-11.7h3v-8.5H797z M318.7,393.3c-21.3-0.7-38-18.6-37.3-40c0.7-20.3,17-36.6,37.3-37.3
	c21.2,0.3,38.4,17.5,38.6,38.8C357.3,376.1,340,393.3,318.7,393.3z"/>
<path class="st0" d="M749.9,458.1c-26.7,15.5-59.7,15.5-86.4,0c-29.2-16.9-65.1-16.9-94.3,0c-26.7,15.5-59.7,15.5-86.4,0
	c-29.2-16.9-65.1-16.9-94.3,0c-13,8-28,12-43.2,11.7c-15.2,0.4-30.2-3.7-43.2-11.7c-14.2-8.6-30.5-13-47.1-12.7
	c-16.6-0.4-32.9,4-47.1,12.7c-13,8-28,12-43.2,11.7c-15.2,0.4-30.2-3.7-43.2-11.7c-14.2-8.6-30.5-13-47.1-12.7
	c-16.6-0.4-33,4-47.2,12.7C19,463.2,9.7,466.7,0,468.6v8.5c11.1-1.8,21.7-5.8,31.3-11.6c13-8,28-12,43.2-11.7
	c15.2-0.4,30.2,3.7,43.2,11.7c14.2,8.6,30.5,13,47.1,12.7c16.6,0.4,32.9-4,47.1-12.7c13-8,28-12,43.2-11.7
	c15.2-0.4,30.2,3.7,43.2,11.7c14.2,8.6,30.5,13,47.2,12.7c16.6,0.4,32.9-4,47.1-12.7c26.7-15.5,59.7-15.5,86.4,0
	c29.2,16.9,65.1,16.9,94.3,0c26.7-15.5,59.7-15.5,86.4,0c29.2,16.9,65.1,16.9,94.3,0c13-8,28-12,43.2-11.7h3v-8.2h-3
	C780.5,445.2,764.1,449.6,749.9,458.1L749.9,458.1z"/>
</svg>
